<svg id="visual" viewBox="0 0 960 540" width="960" height="540" xmlns="http://www.w3.org/2000/svg" xmlns:xlink="http://www.w3.org/1999/xlink" version="1.1"><rect x="0" y="0" width="960" height="540" fill="#fff"></rect><path d="M0 197L22.8 201C45.7 205 91.3 213 137 213.8C182.7 214.7 228.3 208.3 274 197C319.7 185.7 365.3 169.3 411.2 171.7C457 174 503 195 548.8 202.2C594.7 209.3 640.3 202.7 686 190C731.7 177.3 777.3 158.7 823 161.7C868.7 164.7 914.3 189.3 937.2 201.7L960 214L960 0L937.2 0C914.3 0 868.7 0 823 0C777.3 0 731.7 0 686 0C640.3 0 594.7 0 548.8 0C503 0 457 0 411.2 0C365.3 0 319.7 0 274 0C228.3 0 182.7 0 137 0C91.3 0 45.7 0 22.8 0L0 0Z" fill="#93c5fd"></path><path d="M0 157L22.8 148.7C45.7 140.3 91.3 123.7 137 116.3C182.7 109 228.3 111 274 122.7C319.7 134.3 365.3 155.7 411.2 156.5C457 157.3 503 137.7 548.8 128.8C594.7 120 640.3 122 686 122.8C731.7 123.7 777.3 123.3 823 129.5C868.7 135.7 914.3 148.3 937.2 154.7L960 161L960 0L937.2 0C914.3 0 868.7 0 823 0C777.3 0 731.7 0 686 0C640.3 0 594.7 0 548.8 0C503 0 457 0 411.2 0C365.3 0 319.7 0 274 0C228.3 0 182.7 0 137 0C91.3 0 45.7 0 22.8 0L0 0Z" fill="#80b0ff"></path><path d="M0 145L22.8 138.7C45.7 132.3 91.3 119.7 137 113C182.7 106.3 228.3 105.7 274 111.8C319.7 118 365.3 131 411.2 132.2C457 133.3 503 122.7 548.8 112.8C594.7 103 640.3 94 686 97.2C731.7 100.3 777.3 115.7 823 123.7C868.7 131.7 914.3 132.3 937.2 132.7L960 133L960 0L937.2 0C914.3 0 868.7 0 823 0C777.3 0 731.7 0 686 0C640.3 0 594.7 0 548.8 0C503 0 457 0 411.2 0C365.3 0 319.7 0 274 0C228.3 0 182.7 0 137 0C91.3 0 45.7 0 22.8 0L0 0Z" fill="#7b99ff"></path><path d="M0 106L22.8 97.2C45.7 88.3 91.3 70.7 137 64.8C182.7 59 228.3 65 274 71.3C319.7 77.7 365.3 84.3 411.2 83.5C457 82.7 503 74.3 548.8 73C594.7 71.7 640.3 77.3 686 78.7C731.7 80 777.3 77 823 74.7C868.7 72.3 914.3 70.7 937.2 69.8L960 69L960 0L937.2 0C914.3 0 868.7 0 823 0C777.3 0 731.7 0 686 0C640.3 0 594.7 0 548.8 0C503 0 457 0 411.2 0C365.3 0 319.7 0 274 0C228.3 0 182.7 0 137 0C91.3 0 45.7 0 22.8 0L0 0Z" fill="#8a7dff"></path><path d="M0 52L22.8 49.3C45.7 46.7 91.3 41.3 137 40C182.7 38.7 228.3 41.3 274 45.8C319.7 50.3 365.3 56.7 411.2 57.2C457 57.7 503 52.3 548.8 50.7C594.7 49 640.3 51 686 50.5C731.7 50 777.3 47 823 47.5C868.7 48 914.3 52 937.2 54L960 56L960 0L937.2 0C914.3 0 868.7 0 823 0C777.3 0 731.7 0 686 0C640.3 0 594.7 0 548.8 0C503 0 457 0 411.2 0C365.3 0 319.7 0 274 0C228.3 0 182.7 0 137 0C91.3 0 45.7 0 22.8 0L0 0Z" fill="#a855f7"></path></svg>